<svg xmlns="http://www.w3.org/2000/svg" viewBox="0 0 257.83 62.76"><defs><style>.cls-1{fill:#595b5e;}.cls-2{fill:#00aeef;}.cls-3{fill:#50b848;}.cls-4{fill:#56c5d0;}.cls-5{fill:#ffcb05;}.cls-6{fill:#fff200;}.cls-7{fill:#f1f6de;}.cls-8{fill:#ed1c24;}.cls-9{fill:#ed1164;}.cls-10{fill:#ec008c;}</style></defs><title>studienett.no</title><g id="Layer_2" data-name="Layer 2"><g id="Layer_7" data-name="Layer 7"><g id="no"><g id="Logo"><path class="cls-1" d="M197,33.48h-4.52V19.93h5.37v-2.4h-5.37V14.31h-2.68v3.22h-2.93v2.4h2.93v9.19l-4.36,4.36h-7.94l-3-3,7.92-7.93v-5h-7.88l-5.26,5.26v6.3h0l1.51,1.51L168,33.48h-5.05v-16h-7.44l-3.56,3.6V17.6h-2.68V29.12l-4.36,4.36H138l-2.89-3.16,7.8-7.8v-5h-7.88l-5.25,5.25V29l1.55,1.55-2.89,2.89h-4.71v-16h-2.68V29.87l-3.62,3.62h-4.89V11h-2.68v6.53h-6.38l-5.25,5.25v6.54l-4.17,4.17h-3V17.6H88.45V29.87l-3.62,3.62H80.05V17.6H77.37V29L73,33.46H68V19.93h4.4v-2.4H68V14.3H65.34v3.22h-2.9v2.4h2.9v9.93l-3.61,3.61h-5.5L59,30.7V25.22H51.56V23.65l4.76-4.76-1.89-1.62L37,34.7l1.89,1.62,10.2-10.2v1.51h7.23v2.23L52.7,33.48H49.31v2.4H62.84l2.5-2.49v2.49H74l3.33-3.33v3.34H86l2.49-2.5v2.51h6.77l3.06-3.06v3h8.57l3.05-3.06v3h8.67l2.51-2.49v2.49h8.49l3.68-3.67L137,36l.06-.07h8.77l.07.07,3.33-3.33V36h2.68V24.63l4.69-4.71h3.64v16h8.85l3.66-3.67,3.68,3.67h10.14l3.27-3.25v3.25h8.3l3.37-3.36-1.74-1.77Zm-87.13-4.17-4.17,4.17H101V23.62l3.68-3.68h5.27Zm23.35-.62-.76-.76V23.62l3.68-3.68h4.09v1.75ZM172,27.94V23.62l3.68-3.68h4.09v1.75l-7,7Zm49.55,1.34-1.95,1.94-1.95-1.94-1.89,1.89,1.95,1.95-1.95,1.95,1.73,1.73,1.95-1.95,1.95,1.95,1.89-1.89L221.32,33,223.26,31ZM120.38,16.09l1.95-1.95,1.95,1.95,1.89-1.89-1.95-1.95,1.95-1.95-1.73-1.73-1.95,1.95-1.95-1.95-1.89,1.89,1.95,1.95-1.95,1.95Z"/><polygon class="cls-2" points="32.95 0 0 3.19 30.38 12.28 30.38 32.01 32.95 31.82 32.95 0"/><polygon class="cls-3" points="24.88 42.45 30.38 44.1 30.38 32.01 24.88 32.56 24.88 42.45"/><polygon class="cls-4" points="0 3.19 24.88 23.52 24.88 32.56 30.38 32.01 30.38 12.28 0 3.19"/><polygon class="cls-5" points="14.83 47.13 24.88 55.34 24.88 42.45 14.83 39.44 14.83 47.13"/><polygon class="cls-6" points="14.83 33.55 14.83 39.44 24.88 42.45 24.88 32.56 14.83 33.55"/><polygon class="cls-7" points="14.83 33.55 24.88 32.56 24.88 23.52 0 3.19 14.83 30.94 14.83 33.55"/><polygon class="cls-1" points="14.83 62.76 14.83 47.13 0 35.01 14.83 62.76"/><polygon class="cls-8" points="0 35.01 14.83 47.13 14.83 39.44 0 35.01"/><polygon class="cls-9" points="14.83 33.55 0 35.01 14.83 39.44 14.83 33.55"/><polygon class="cls-10" points="14.83 30.94 0 3.19 0 35.01 14.83 33.55 14.83 30.94"/></g><polyline class="cls-1" points="198.09 35.89 201.36 32.63 201.36 35.89 209.67 35.89 213.03 32.53 211.29 30.75 208.56 33.48 204.04 33.48 204.04 19.93 208.41 19.93 208.41 17.53 204.04 17.53 204.04 14.31 201.36 14.31 201.36 17.53 197.43 17.53 197.43 19.93 201.36 19.93 201.36 29.12 197 33.48"/><polyline class="cls-1" points="240.92 35.89 240.92 17.52 233.48 17.52 229.91 21.12 229.91 17.51 227.24 17.51 227.24 35.96 229.91 35.95 229.91 24.64 234.6 19.92 238.24 19.92 238.24 35.88"/><path class="cls-1" d="M247.74,17.54l-3.58,3.58V33.34h-3.47v2.54h13.64l3.51-3.51V17.54Zm7.41,13.94-1.94,1.9h-6.41V22.21l2.27-2.29h6.08Z"/></g></g></g></svg>